<svg width="38" height="38" viewBox="0 0 38 38" fill="none" xmlns="http://www.w3.org/2000/svg">
<path d="M19 0C8.55 0 0 8.55 0 19C0 29.45 8.55 38 19 38C29.45 38 38 29.45 38 19C38 8.55 29.45 0 19 0ZM19 6.33333C22.4833 6.33333 25.3333 9.81667 25.3333 14.25C25.3333 18.6833 22.4833 22.1667 19 22.1667C15.5167 22.1667 12.6667 18.6833 12.6667 14.25C12.6667 9.81667 15.5167 6.33333 19 6.33333ZM29.45 30.875C26.7583 33.25 22.9583 34.8333 19 34.8333C15.0417 34.8333 11.2417 33.25 8.55 30.875C7.91667 30.2417 7.75833 29.2917 8.39167 28.6583C10.1333 26.6 12.5083 25.175 15.0417 24.3833C16.3083 25.0167 17.575 25.3333 19 25.3333C20.425 25.3333 21.6917 25.0167 22.9583 24.3833C25.65 25.175 27.8667 26.6 29.6083 28.6583C30.2417 29.2917 30.2417 30.2417 29.45 30.875Z" fill="url(#paint0_linear_110_2)"/>
<defs>
<linearGradient id="paint0_linear_110_2" x1="1.58333" y1="21.6389" x2="38" y2="20.5833" gradientUnits="userSpaceOnUse">
<stop stop-color="#66CFA4"/>
<stop offset="1" stop-color="#12ADFD"/>
</linearGradient>
</defs>
</svg>
