<svg width="23" height="18" viewBox="0 0 23 18" fill="none" xmlns="http://www.w3.org/2000/svg">
<path fill-rule="evenodd" clip-rule="evenodd" d="M8.99996 1.5C9.00015 1.34359 8.93513 1.19104 8.814 1.06372C8.69287 0.93639 8.52169 0.840654 8.32442 0.789904C8.12715 0.739154 7.91366 0.735931 7.71383 0.780685C7.514 0.82544 7.33783 0.915932 7.20996 1.0395L0.209962 7.7895C0.073407 7.92115 -0.000732422 8.0832 -0.000732422 8.25C-0.000732422 8.4168 0.073407 8.57884 0.209962 8.7105L7.20996 15.4605C7.33783 15.5841 7.514 15.6746 7.71383 15.7193C7.91366 15.7641 8.12715 15.7608 8.32442 15.7101C8.52169 15.6593 8.69287 15.5636 8.814 15.4363C8.93513 15.309 9.00015 15.1564 8.99996 15V12.0075C14.379 12.0915 16.963 12.8572 18.261 13.6897C19.495 14.481 19.721 15.4117 19.956 16.3867L20.017 16.638C20.0618 16.8178 20.1928 16.9791 20.3851 17.0915C20.5774 17.204 20.8179 17.2598 21.0614 17.2486C21.3048 17.2373 21.5343 17.1598 21.7068 17.0305C21.8793 16.9012 21.9828 16.7291 21.998 16.5465C22.169 14.4855 21.912 11.499 19.971 9.00075C18.087 6.576 14.694 4.7115 8.99996 4.5165V1.5Z" fill="black"/>
</svg>
