<svg width="21" height="20" viewBox="0 0 21 20" fill="none" xmlns="http://www.w3.org/2000/svg">
<path d="M19.5 0.00134277H1.5C0.671573 0.00134277 0 0.672916 0 1.50134V2.25134C0 3.07977 0.671573 3.75134 1.5 3.75134H19.5C20.3284 3.75134 21 3.07977 21 2.25134V1.50134C21 0.672916 20.3284 0.00134277 19.5 0.00134277Z" fill="black"/>
<path d="M1.98982 5.25135C1.93712 5.25106 1.88495 5.26189 1.83672 5.28312C1.78849 5.30435 1.74527 5.33551 1.70989 5.37456C1.67451 5.41361 1.64775 5.45969 1.63137 5.50978C1.61499 5.55986 1.60935 5.61284 1.61482 5.66525L2.8481 17.504C2.84785 17.5074 2.84785 17.5109 2.8481 17.5143C2.91254 18.0619 3.17579 18.5667 3.58788 18.933C3.99997 19.2993 4.53221 19.5016 5.08357 19.5013H15.9159C16.4671 19.5013 16.9991 19.299 17.411 18.9327C17.8229 18.5665 18.086 18.0617 18.1504 17.5143V17.5045L19.3818 5.66525C19.3873 5.61284 19.3817 5.55986 19.3653 5.50978C19.3489 5.45969 19.3222 5.41361 19.2868 5.37456C19.2514 5.33551 19.2082 5.30435 19.1599 5.28312C19.1117 5.26189 19.0595 5.25106 19.0068 5.25135H1.98982ZM13.6551 13.7212C13.7264 13.7905 13.7832 13.8732 13.8223 13.9647C13.8613 14.0561 13.8818 14.1544 13.8825 14.2538C13.8832 14.3532 13.8641 14.4518 13.8264 14.5437C13.7887 14.6357 13.733 14.7193 13.6627 14.7895C13.5924 14.8598 13.5088 14.9154 13.4168 14.9531C13.3248 14.9908 13.2263 15.0098 13.1268 15.0091C13.0274 15.0083 12.9292 14.9878 12.8377 14.9488C12.7463 14.9097 12.6636 14.8528 12.5943 14.7815L10.5 12.6871L8.40513 14.7815C8.26383 14.9188 8.07418 14.995 7.87717 14.9936C7.68016 14.9922 7.49161 14.9133 7.35227 14.774C7.21293 14.6348 7.13399 14.4463 7.13251 14.2492C7.13103 14.0522 7.20712 13.8626 7.34435 13.7212L9.43919 11.6263L7.34435 9.5315C7.20712 9.39014 7.13103 9.20046 7.13251 9.00345C7.13399 8.80645 7.21293 8.61793 7.35227 8.47865C7.49161 8.33937 7.68016 8.26051 7.87717 8.25912C8.07418 8.25772 8.26383 8.3339 8.40513 8.47119L10.5 10.5656L12.5943 8.47119C12.7356 8.3339 12.9253 8.25772 13.1223 8.25912C13.3193 8.26051 13.5079 8.33937 13.6472 8.47865C13.7865 8.61793 13.8655 8.80645 13.867 9.00345C13.8685 9.20046 13.7924 9.39014 13.6551 9.5315L11.5603 11.6263L13.6551 13.7212Z" fill="black"/>
</svg>
