<svg width="21" height="20" viewBox="0 0 21 20" fill="none" xmlns="http://www.w3.org/2000/svg">
<path d="M19.5 0.000976562H1.5C0.671573 0.000976562 0 0.672549 0 1.50098V2.25098C0 3.0794 0.671573 3.75098 1.5 3.75098H19.5C20.3284 3.75098 21 3.0794 21 2.25098V1.50098C21 0.672549 20.3284 0.000976562 19.5 0.000976562Z" fill="white"/>
<path d="M1.98982 5.25098C1.93712 5.2507 1.88495 5.26152 1.83672 5.28275C1.78849 5.30398 1.74527 5.33514 1.70989 5.37419C1.67451 5.41325 1.64775 5.45932 1.63137 5.50941C1.61499 5.5595 1.60935 5.61247 1.61482 5.66489L2.8481 17.5036C2.84785 17.5071 2.84785 17.5105 2.8481 17.514C2.91254 18.0615 3.17579 18.5664 3.58788 18.9327C3.99997 19.299 4.53221 19.5012 5.08357 19.501H15.9159C16.4671 19.501 16.9991 19.2986 17.411 18.9324C17.8229 18.5661 18.086 18.0614 18.1504 17.514V17.5041L19.3818 5.66489C19.3873 5.61247 19.3817 5.5595 19.3653 5.50941C19.3489 5.45932 19.3222 5.41325 19.2868 5.37419C19.2514 5.33514 19.2082 5.30398 19.1599 5.28275C19.1117 5.26152 19.0595 5.2507 19.0068 5.25098H1.98982ZM13.6551 13.7208C13.7264 13.7901 13.7832 13.8729 13.8223 13.9643C13.8613 14.0557 13.8818 14.154 13.8825 14.2534C13.8832 14.3528 13.8641 14.4514 13.8264 14.5434C13.7887 14.6353 13.733 14.7189 13.6627 14.7892C13.5924 14.8595 13.5088 14.9151 13.4168 14.9528C13.3248 14.9904 13.2263 15.0095 13.1268 15.0087C13.0274 15.008 12.9292 14.9875 12.8377 14.9484C12.7463 14.9093 12.6636 14.8525 12.5943 14.7811L10.5 12.6868L8.40513 14.7811C8.26383 14.9184 8.07418 14.9946 7.87717 14.9932C7.68016 14.9918 7.49161 14.913 7.35227 14.7737C7.21293 14.6344 7.13399 14.4459 7.13251 14.2489C7.13103 14.0519 7.20712 13.8622 7.34435 13.7208L9.43919 11.626L7.34435 9.53114C7.20712 9.38978 7.13103 9.2001 7.13251 9.00309C7.13399 8.80608 7.21293 8.61757 7.35227 8.47829C7.49161 8.33901 7.68016 8.26015 7.87717 8.25875C8.07418 8.25736 8.26383 8.33354 8.40513 8.47083L10.5 10.5652L12.5943 8.47083C12.7356 8.33354 12.9253 8.25736 13.1223 8.25875C13.3193 8.26015 13.5079 8.33901 13.6472 8.47829C13.7865 8.61757 13.8655 8.80608 13.867 9.00309C13.8685 9.2001 13.7924 9.38978 13.6551 9.53114L11.5603 11.626L13.6551 13.7208Z" fill="white"/>
</svg>
