<svg width="21" height="24" viewBox="0 0 21 24" fill="none" xmlns="http://www.w3.org/2000/svg">
<path d="M14.3684 0H2.21053C0.994737 0 0 0.981818 0 2.18182V16.3636C0 16.9636 0.497368 17.4545 1.10526 17.4545C1.71316 17.4545 2.21053 16.9636 2.21053 16.3636V3.27273C2.21053 2.67273 2.70789 2.18182 3.31579 2.18182H14.3684C14.9763 2.18182 15.4737 1.69091 15.4737 1.09091C15.4737 0.490909 14.9763 0 14.3684 0ZM18.7895 4.36364H6.63158C5.41579 4.36364 4.42105 5.34545 4.42105 6.54545V21.8182C4.42105 23.0182 5.41579 24 6.63158 24H18.7895C20.0053 24 21 23.0182 21 21.8182V6.54545C21 5.34545 20.0053 4.36364 18.7895 4.36364ZM17.6842 21.8182H7.73684C7.12895 21.8182 6.63158 21.3273 6.63158 20.7273V7.63636C6.63158 7.03636 7.12895 6.54545 7.73684 6.54545H17.6842C18.2921 6.54545 18.7895 7.03636 18.7895 7.63636V20.7273C18.7895 21.3273 18.2921 21.8182 17.6842 21.8182Z" fill="black"/>
</svg>
