<svg width="15" height="21" viewBox="0 0 15 21" fill="none" xmlns="http://www.w3.org/2000/svg">
<path d="M7.5 0V5.25C7.5 5.84674 7.73705 6.41903 8.15901 6.84099C8.58097 7.26295 9.15326 7.5 9.75 7.5H15V18.75C15 19.3467 14.7629 19.919 14.341 20.341C13.919 20.7629 13.3467 21 12.75 21H2.25C1.65326 21 1.08097 20.7629 0.65901 20.341C0.237053 19.919 0 19.3467 0 18.75V2.25C0 1.65326 0.237053 1.08097 0.65901 0.65901C1.08097 0.237053 1.65326 0 2.25 0H7.5ZM9 0.375V5.25C9 5.44891 9.07902 5.63968 9.21967 5.78033C9.36032 5.92098 9.55109 6 9.75 6H14.625L9 0.375Z" fill="white"/>
</svg>
