<svg width="21" height="22" viewBox="0 0 21 22" fill="none" xmlns="http://www.w3.org/2000/svg">
<path d="M0 2.75C0 2.15326 0.237053 1.58097 0.65901 1.15901C1.08097 0.737053 1.65326 0.5 2.25 0.5H6.75C7.34674 0.5 7.91903 0.737053 8.34099 1.15901C8.76295 1.58097 9 2.15326 9 2.75V7.25C9 7.84674 8.76295 8.41903 8.34099 8.84099C7.91903 9.26295 7.34674 9.5 6.75 9.5H2.25C1.65326 9.5 1.08097 9.26295 0.65901 8.84099C0.237053 8.41903 0 7.84674 0 7.25V2.75ZM12 2.75C12 2.15326 12.2371 1.58097 12.659 1.15901C13.081 0.737053 13.6533 0.5 14.25 0.5H18.75C19.3467 0.5 19.919 0.737053 20.341 1.15901C20.7629 1.58097 21 2.15326 21 2.75V7.25C21 7.84674 20.7629 8.41903 20.341 8.84099C19.919 9.26295 19.3467 9.5 18.75 9.5H14.25C13.6533 9.5 13.081 9.26295 12.659 8.84099C12.2371 8.41903 12 7.84674 12 7.25V2.75ZM0 14.75C0 14.1533 0.237053 13.581 0.65901 13.159C1.08097 12.7371 1.65326 12.5 2.25 12.5H6.75C7.34674 12.5 7.91903 12.7371 8.34099 13.159C8.76295 13.581 9 14.1533 9 14.75V19.25C9 19.8467 8.76295 20.419 8.34099 20.841C7.91903 21.2629 7.34674 21.5 6.75 21.5H2.25C1.65326 21.5 1.08097 21.2629 0.65901 20.841C0.237053 20.419 0 19.8467 0 19.25V14.75ZM12 14.75C12 14.1533 12.2371 13.581 12.659 13.159C13.081 12.7371 13.6533 12.5 14.25 12.5H18.75C19.3467 12.5 19.919 12.7371 20.341 13.159C20.7629 13.581 21 14.1533 21 14.75V19.25C21 19.8467 20.7629 20.419 20.341 20.841C19.919 21.2629 19.3467 21.5 18.75 21.5H14.25C13.6533 21.5 13.081 21.2629 12.659 20.841C12.2371 20.419 12 19.8467 12 19.25V14.75Z" fill="black"/>
</svg>
