<svg width="26" height="32" viewBox="0 0 26 32" fill="none" xmlns="http://www.w3.org/2000/svg">
<path d="M1.58333 0H23.75C24.1699 0 24.5727 0.166815 24.8696 0.463748C25.1665 0.76068 25.3333 1.16341 25.3333 1.58333V30.0833C25.3333 30.5033 25.1665 30.906 24.8696 31.2029C24.5727 31.4999 24.1699 31.6667 23.75 31.6667H1.58333C1.16341 31.6667 0.76068 31.4999 0.463748 31.2029C0.166815 30.906 0 30.5033 0 30.0833V1.58333C0 1.16341 0.166815 0.76068 0.463748 0.463748C0.76068 0.166815 1.16341 0 1.58333 0ZM7.91667 14.25V9.5L0 15.8333L7.91667 22.1667V17.4167H17.4167V14.25H7.91667Z" fill="url(#paint0_linear_111_9)"/>
<defs>
<linearGradient id="paint0_linear_111_9" x1="0.999999" y1="16" x2="25" y2="16" gradientUnits="userSpaceOnUse">
<stop stop-color="#66CFA4"/>
<stop offset="1" stop-color="#14AEFB"/>
</linearGradient>
</defs>
</svg>
