<svg width="23" height="24" viewBox="0 0 23 24" fill="none" xmlns="http://www.w3.org/2000/svg">
<path d="M11.5 3.375C9.79414 3.375 8.12658 3.88085 6.70821 4.82857C5.28984 5.7763 4.18435 7.12334 3.53154 8.69936C2.87874 10.2754 2.70793 12.0096 3.04073 13.6827C3.37353 15.3557 4.19498 16.8926 5.40121 18.0988C6.60744 19.305 8.14426 20.1265 9.81735 20.4593C11.4904 20.7921 13.2246 20.6213 14.8006 19.9685C16.3767 19.3157 17.7237 18.2102 18.6714 16.7918C19.6192 15.3734 20.125 13.7059 20.125 12C20.125 11.5592 20.0867 11.1183 20.0292 10.6967C19.5503 11.3681 18.9176 11.9151 18.184 12.292C17.4504 12.6688 16.6372 12.8644 15.8125 12.8625C14.7154 12.8625 13.6467 12.5141 12.7604 11.8674C11.8741 11.2208 11.2162 10.3093 10.8814 9.26454C10.5467 8.21976 10.5524 7.09566 10.8978 6.05436C11.2433 5.01306 11.9105 4.10839 12.8033 3.47083C12.3817 3.41333 11.9408 3.375 11.5 3.375Z" fill="black"/>
</svg>
