<svg width="21" height="21" viewBox="0 0 21 21" fill="none" xmlns="http://www.w3.org/2000/svg">
<path d="M2.43164 2.5H6.44164V0.5H0.431641V6.5H2.43164V2.5ZM2.43164 14.5H0.431641V20.5H6.44164V18.5H2.43164V14.5ZM18.4316 18.5H14.4316V20.5H20.4316V14.5H18.4316V18.5ZM14.4316 2.5H18.4316V6.5H20.4316V0.5H14.4316V2.5Z" fill="white"/>
<path d="M3.43164 9.5H9.43164V3.5H3.43164V9.5ZM5.43164 5.5H7.43164V7.5H5.43164V5.5ZM3.43164 17.5H9.43164V11.5H3.43164V17.5ZM5.43164 13.5H7.43164V15.5H5.43164V13.5ZM17.4316 3.5H11.4316V9.5H17.4316V3.5ZM15.4316 7.5H13.4316V5.5H15.4316V7.5ZM11.4416 11.5H13.4416V13.5H11.4416V11.5ZM13.4416 13.5H15.4416V15.5H13.4416V13.5ZM15.4416 15.5H17.4416V17.5H15.4416V15.5ZM15.4416 11.5H17.4416V13.5H15.4416V11.5Z" fill="white"/>
</svg>
