<svg width="15" height="16" viewBox="0 0 15 16" fill="none" xmlns="http://www.w3.org/2000/svg">
<path d="M6 2C3.51472 2 1.5 4.01472 1.5 6.5C1.5 8.98528 3.51472 11 6 11C8.48528 11 10.5 8.98528 10.5 6.5C10.5 4.01472 8.48528 2 6 2ZM0 6.5C0 3.18629 2.68629 0.5 6 0.5C9.31371 0.5 12 3.18629 12 6.5C12 7.88653 11.5297 9.16322 10.7399 10.1792L14.7803 14.2197C15.0732 14.5126 15.0732 14.9874 14.7803 15.2803C14.4874 15.5732 14.0126 15.5732 13.7197 15.2803L9.67923 11.2399C8.66322 12.0297 7.38653 12.5 6 12.5C2.68629 12.5 0 9.81371 0 6.5Z" fill="#0D0D0D"/>
</svg>
