<svg width="24" height="25" viewBox="0 0 24 25" fill="none" xmlns="http://www.w3.org/2000/svg">
<g opacity="0.4">
<path fill-rule="evenodd" clip-rule="evenodd" d="M12 10.0013C13.3809 10.0013 14.5 11.1205 14.5 12.5013C14.5 13.8822 13.3809 15.0013 12 15.0013C10.6191 15.0013 9.5 13.8822 9.5 12.5013C9.5 11.1205 10.6191 10.0013 12 10.0013Z" stroke="black" stroke-width="1.5" stroke-linecap="round" stroke-linejoin="round"/>
<path fill-rule="evenodd" clip-rule="evenodd" d="M20.168 7.75159V7.75159C19.4845 6.55934 17.9712 6.15138 16.7885 6.83987C15.7598 7.43747 14.4741 6.68972 14.4741 5.49352C14.4741 4.11754 13.3659 3.00134 11.9998 3.00134V3.00134C10.6337 3.00134 9.52546 4.11754 9.52546 5.49352C9.52546 6.68972 8.23977 7.43747 7.21199 6.83987C6.02829 6.15138 4.51507 6.55934 3.83153 7.75159C3.14896 8.94384 3.55399 10.468 4.73769 11.1555C5.76546 11.7541 5.76546 13.2486 4.73769 13.8472C3.55399 14.5357 3.14896 16.0598 3.83153 17.2511C4.51507 18.4433 6.02829 18.8513 7.21101 18.1638H7.21199C8.23977 17.5652 9.52546 18.313 9.52546 19.5092V19.5092C9.52546 20.8851 10.6337 22.0013 11.9998 22.0013V22.0013C13.3659 22.0013 14.4741 20.8851 14.4741 19.5092V19.5092C14.4741 18.313 15.7598 17.5652 16.7885 18.1638C17.9712 18.8513 19.4845 18.4433 20.168 17.2511C20.8515 16.0598 20.4455 14.5357 19.2628 13.8472H19.2618C18.2341 13.2486 18.2341 11.7541 19.2628 11.1555C20.4455 10.468 20.8515 8.94384 20.168 7.75159Z" stroke="black" stroke-width="1.5" stroke-linecap="round" stroke-linejoin="round"/>
</g>
</svg>
