<svg width="20" height="21" viewBox="0 0 20 21" fill="none" xmlns="http://www.w3.org/2000/svg">
<path fill-rule="evenodd" clip-rule="evenodd" d="M10 8.00098C11.3809 8.00098 12.5 9.1201 12.5 10.501C12.5 11.8819 11.3809 13.001 10 13.001C8.61912 13.001 7.5 11.8819 7.5 10.501C7.5 9.1201 8.61912 8.00098 10 8.00098Z" stroke="white" stroke-width="1.5" stroke-linecap="round" stroke-linejoin="round"/>
<path fill-rule="evenodd" clip-rule="evenodd" d="M18.168 5.75122V5.75122C17.4845 4.55897 15.9712 4.15102 14.7885 4.8395C13.7598 5.43711 12.4741 4.68936 12.4741 3.49315C12.4741 2.11717 11.3659 1.00098 9.99976 1.00098V1.00098C8.63365 1.00098 7.52546 2.11717 7.52546 3.49315C7.52546 4.68936 6.23977 5.43711 5.21199 4.8395C4.02829 4.15102 2.51507 4.55897 1.83153 5.75122C1.14896 6.94348 1.55399 8.46763 2.73769 9.15512C3.76546 9.75372 3.76546 11.2482 2.73769 11.8468C1.55399 12.5353 1.14896 14.0595 1.83153 15.2507C2.51507 16.443 4.02829 16.8509 5.21101 16.1634H5.21199C6.23977 15.5648 7.52546 16.3126 7.52546 17.5088V17.5088C7.52546 18.8848 8.63365 20.001 9.99976 20.001V20.001C11.3659 20.001 12.4741 18.8848 12.4741 17.5088V17.5088C12.4741 16.3126 13.7598 15.5648 14.7885 16.1634C15.9712 16.8509 17.4845 16.443 18.168 15.2507C18.8515 14.0595 18.4455 12.5353 17.2628 11.8468H17.2618C16.2341 11.2482 16.2341 9.75372 17.2628 9.15512C18.4455 8.46763 18.8515 6.94348 18.168 5.75122Z" stroke="white" stroke-width="1.5" stroke-linecap="round" stroke-linejoin="round"/>
</svg>
