<svg width="24" height="17" viewBox="0 0 24 17" fill="none" xmlns="http://www.w3.org/2000/svg">
<path d="M5.62503 9.06296C5.62629 9.16181 5.60775 9.2599 5.5705 9.35146C5.53326 9.44302 5.47806 9.5262 5.40816 9.5961C5.33827 9.666 5.25509 9.72119 5.16353 9.75844C5.07196 9.79568 4.97387 9.81422 4.87503 9.81296H0.75003C0.610698 9.81183 0.474293 9.77286 0.3554 9.7002C0.236506 9.62754 0.139596 9.52394 0.0750298 9.40047C0.01499 9.27473 -0.00974718 9.13504 0.00346318 8.99633C0.0166735 8.85762 0.0673347 8.72511 0.15003 8.61296C0.813768 7.72199 1.69945 7.02056 2.71878 6.57859C2.28077 6.17764 1.94424 5.67841 1.73689 5.12199C1.52953 4.56556 1.45728 3.96785 1.52608 3.37804C1.59487 2.78823 1.80275 2.22319 2.1326 1.72943C2.46246 1.23566 2.90485 0.827285 3.42338 0.537911C3.9419 0.248537 4.52174 0.0864384 5.11515 0.0649553C5.70857 0.0434722 6.29861 0.163219 6.8367 0.414341C7.3748 0.665462 7.84556 1.04078 8.21025 1.5094C8.57495 1.97802 8.82314 2.52655 8.9344 3.10984C8.96214 3.26176 8.9429 3.41852 8.87925 3.55922C8.8156 3.69992 8.71057 3.81787 8.57815 3.89734C7.36562 4.61636 6.44342 5.73759 5.9719 7.06609C5.73947 7.70606 5.62203 8.3821 5.62503 9.06296ZM23.1 8.61296C22.4363 7.72199 21.5506 7.02056 20.5313 6.57859C20.9693 6.17764 21.3058 5.67841 21.5132 5.12199C21.7205 4.56556 21.7928 3.96785 21.724 3.37804C21.6552 2.78823 21.4473 2.22319 21.1175 1.72943C20.7876 1.23566 20.3452 0.827285 19.8267 0.537911C19.3082 0.248537 18.7283 0.0864384 18.1349 0.0649553C17.5415 0.0434722 16.9514 0.163219 16.4134 0.414341C15.8753 0.665462 15.4045 1.04078 15.0398 1.5094C14.6751 1.97802 14.4269 2.52655 14.3157 3.10984C14.2879 3.26176 14.3072 3.41852 14.3708 3.55922C14.4345 3.69992 14.5395 3.81787 14.6719 3.89734C15.886 4.61451 16.8088 5.7364 17.2782 7.06609C17.5106 7.70606 17.628 8.3821 17.625 9.06296C17.6238 9.16181 17.6423 9.2599 17.6796 9.35146C17.7168 9.44302 17.772 9.5262 17.8419 9.5961C17.9118 9.666 17.995 9.72119 18.0865 9.75844C18.1781 9.79568 18.2762 9.81422 18.375 9.81296H22.5C22.6393 9.81296 22.7758 9.77418 22.8943 9.70095C23.0128 9.62773 23.1086 9.52295 23.1708 9.39838C23.2331 9.2738 23.2595 9.13433 23.247 8.99561C23.2345 8.85689 23.1836 8.72439 23.1 8.61296ZM14.3625 12.6348C15.1089 12.0627 15.6574 11.2711 15.9307 10.3713C16.2041 9.47145 16.1887 8.50857 15.8866 7.61794C15.5845 6.72732 15.011 5.95371 14.2467 5.40582C13.4823 4.85792 12.5655 4.56327 11.625 4.56327C10.6846 4.56327 9.76776 4.85792 9.00339 5.40582C8.23902 5.95371 7.66551 6.72732 7.36345 7.61794C7.0614 8.50857 7.04596 9.47145 7.31933 10.3713C7.59269 11.2711 8.14111 12.0627 8.88753 12.6348C7.42928 13.2823 6.24704 14.4246 5.55003 15.8598C5.49457 15.9739 5.46973 16.1004 5.47795 16.227C5.48617 16.3535 5.52716 16.4758 5.5969 16.5817C5.66182 16.6904 5.75382 16.7803 5.86392 16.8428C5.97403 16.9052 6.09845 16.938 6.22503 16.938H17.025C17.1516 16.938 17.276 16.9052 17.3861 16.8428C17.4962 16.7803 17.5882 16.6904 17.6532 16.5817C17.7229 16.4758 17.7639 16.3535 17.7721 16.227C17.7803 16.1004 17.7555 15.9739 17.7 15.8598C17.003 14.4246 15.8208 13.2823 14.3625 12.6348Z" fill="white"/>
</svg>
