<svg width="24" height="25" viewBox="0 0 24 25" fill="none" xmlns="http://www.w3.org/2000/svg">
<path d="M12 7.5C10.6739 7.5 9.40215 8.02678 8.46447 8.96447C7.52678 9.90215 7 11.1739 7 12.5C7 13.8261 7.52678 15.0979 8.46447 16.0355C9.40215 16.9732 10.6739 17.5 12 17.5C13.3261 17.5 14.5979 16.9732 15.5355 16.0355C16.4732 15.0979 17 13.8261 17 12.5C17 11.1739 16.4732 9.90215 15.5355 8.96447C14.5979 8.02678 13.3261 7.5 12 7.5V7.5Z" fill="#999999"/>
<path fill-rule="evenodd" clip-rule="evenodd" d="M12 1.5C12.2652 1.5 12.5196 1.60536 12.7071 1.79289C12.8946 1.98043 13 2.23478 13 2.5V3.5C13 3.76522 12.8946 4.01957 12.7071 4.20711C12.5196 4.39464 12.2652 4.5 12 4.5C11.7348 4.5 11.4804 4.39464 11.2929 4.20711C11.1054 4.01957 11 3.76522 11 3.5V2.5C11 2.23478 11.1054 1.98043 11.2929 1.79289C11.4804 1.60536 11.7348 1.5 12 1.5V1.5ZM3.293 3.793C3.48053 3.60553 3.73484 3.50021 4 3.50021C4.26516 3.50021 4.51947 3.60553 4.707 3.793L6.207 5.293C6.38916 5.4816 6.48995 5.7342 6.48767 5.9964C6.4854 6.2586 6.38023 6.50941 6.19482 6.69482C6.00941 6.88023 5.7586 6.9854 5.4964 6.98767C5.2342 6.98995 4.9816 6.88916 4.793 6.707L3.293 5.207C3.10553 5.01947 3.00021 4.76516 3.00021 4.5C3.00021 4.23484 3.10553 3.98053 3.293 3.793V3.793ZM20.707 3.793C20.8945 3.98053 20.9998 4.23484 20.9998 4.5C20.9998 4.76516 20.8945 5.01947 20.707 5.207L19.207 6.707C19.1148 6.80251 19.0044 6.87869 18.8824 6.9311C18.7604 6.98351 18.6292 7.0111 18.4964 7.01225C18.3636 7.0134 18.2319 6.9881 18.109 6.93782C17.9862 6.88754 17.8745 6.81329 17.7806 6.7194C17.6867 6.6255 17.6125 6.51385 17.5622 6.39095C17.5119 6.26806 17.4866 6.13638 17.4877 6.0036C17.4889 5.87082 17.5165 5.7396 17.5689 5.6176C17.6213 5.49559 17.6975 5.38525 17.793 5.293L19.293 3.793C19.4805 3.60553 19.7348 3.50021 20 3.50021C20.2652 3.50021 20.5195 3.60553 20.707 3.793ZM1 12.5C1 12.2348 1.10536 11.9804 1.29289 11.7929C1.48043 11.6054 1.73478 11.5 2 11.5H3C3.26522 11.5 3.51957 11.6054 3.70711 11.7929C3.89464 11.9804 4 12.2348 4 12.5C4 12.7652 3.89464 13.0196 3.70711 13.2071C3.51957 13.3946 3.26522 13.5 3 13.5H2C1.73478 13.5 1.48043 13.3946 1.29289 13.2071C1.10536 13.0196 1 12.7652 1 12.5ZM20 12.5C20 12.2348 20.1054 11.9804 20.2929 11.7929C20.4804 11.6054 20.7348 11.5 21 11.5H22C22.2652 11.5 22.5196 11.6054 22.7071 11.7929C22.8946 11.9804 23 12.2348 23 12.5C23 12.7652 22.8946 13.0196 22.7071 13.2071C22.5196 13.3946 22.2652 13.5 22 13.5H21C20.7348 13.5 20.4804 13.3946 20.2929 13.2071C20.1054 13.0196 20 12.7652 20 12.5ZM6.207 18.293C6.39447 18.4805 6.49979 18.7348 6.49979 19C6.49979 19.2652 6.39447 19.5195 6.207 19.707L4.707 21.207C4.5184 21.3892 4.2658 21.49 4.0036 21.4877C3.7414 21.4854 3.49059 21.3802 3.30518 21.1948C3.11977 21.0094 3.0146 20.7586 3.01233 20.4964C3.01005 20.2342 3.11084 19.9816 3.293 19.793L4.793 18.293C4.98053 18.1055 5.23484 18.0002 5.5 18.0002C5.76516 18.0002 6.01947 18.1055 6.207 18.293V18.293ZM17.793 18.293C17.9805 18.1055 18.2348 18.0002 18.5 18.0002C18.7652 18.0002 19.0195 18.1055 19.207 18.293L20.707 19.793C20.8892 19.9816 20.99 20.2342 20.9877 20.4964C20.9854 20.7586 20.8802 21.0094 20.6948 21.1948C20.5094 21.3802 20.2586 21.4854 19.9964 21.4877C19.7342 21.49 19.4816 21.3892 19.293 21.207L17.793 19.707C17.6055 19.5195 17.5002 19.2652 17.5002 19C17.5002 18.7348 17.6055 18.4805 17.793 18.293ZM12 20.5C12.2652 20.5 12.5196 20.6054 12.7071 20.7929C12.8946 20.9804 13 21.2348 13 21.5V22.5C13 22.7652 12.8946 23.0196 12.7071 23.2071C12.5196 23.3946 12.2652 23.5 12 23.5C11.7348 23.5 11.4804 23.3946 11.2929 23.2071C11.1054 23.0196 11 22.7652 11 22.5V21.5C11 21.2348 11.1054 20.9804 11.2929 20.7929C11.4804 20.6054 11.7348 20.5 12 20.5V20.5Z" fill="#999999"/>
</svg>
