<svg width="22" height="24" viewBox="0 0 22 24" fill="none" xmlns="http://www.w3.org/2000/svg">
<path d="M6.41554 18.9808C5.16369 18.887 3.97422 18.4094 3.01696 17.6164C2.0597 16.8233 1.38361 15.7553 1.08523 14.5648C0.786841 13.3743 0.881415 12.1222 1.35545 10.9872C1.82948 9.85233 2.65873 8.89264 3.72479 8.24521C3.95162 6.51865 4.8152 4.93194 6.15391 3.78203C7.49261 2.63211 9.21469 1.9978 10.9979 1.9978C12.7811 1.9978 14.5032 2.63211 15.8419 3.78203C17.1806 4.93194 18.0441 6.51865 18.271 8.24521C19.337 8.89264 20.1663 9.85233 20.6403 10.9872C21.1144 12.1222 21.2089 13.3743 20.9105 14.5648C20.6122 15.7553 19.9361 16.8233 18.9788 17.6164C18.0216 18.4094 16.8321 18.887 15.5802 18.9808V18.9978H6.41554V18.9808ZM11.9144 11.8407H14.6638L10.9979 7.36757L7.33201 11.8407H10.0814V15.4193H11.9144V11.8407Z" fill="black"/>
</svg>
