<svg width="22" height="24" viewBox="0 0 22 24" fill="none" xmlns="http://www.w3.org/2000/svg">
<path d="M6.41554 18.9811C5.16369 18.8872 3.97422 18.4097 3.01696 17.6166C2.0597 16.8235 1.38361 15.7555 1.08523 14.565C0.786841 13.3745 0.881415 12.1224 1.35545 10.9875C1.82948 9.85258 2.65873 8.89289 3.72479 8.24545C3.95162 6.51889 4.8152 4.93218 6.15391 3.78227C7.49261 2.63236 9.21469 1.99805 10.9979 1.99805C12.7811 1.99805 14.5032 2.63236 15.8419 3.78227C17.1806 4.93218 18.0441 6.51889 18.271 8.24545C19.337 8.89289 20.1663 9.85258 20.6403 10.9875C21.1144 12.1224 21.2089 13.3745 20.9105 14.565C20.6122 15.7555 19.9361 16.8235 18.9788 17.6166C18.0216 18.4097 16.8321 18.8872 15.5802 18.9811V18.998H6.41554V18.9811ZM11.9144 11.841H14.6638L10.9979 7.36782L7.33201 11.841H10.0814V15.4195H11.9144V11.841Z" fill="white"/>
</svg>
