<svg width="24" height="21" viewBox="0 0 24 21" fill="none" xmlns="http://www.w3.org/2000/svg">
<path d="M1.2 4.2C0.54 4.2 0 4.6725 0 5.25V18.9C0 20.055 1.08 21 2.4 21H18C18.66 21 19.2 20.5275 19.2 19.95C19.2 19.3725 18.66 18.9 18 18.9H3.6C2.94 18.9 2.4 18.4275 2.4 17.85V5.25C2.4 4.6725 1.86 4.2 1.2 4.2ZM21.6 0H7.2C5.88 0 4.8 0.945 4.8 2.1V14.7C4.8 15.855 5.88 16.8 7.2 16.8H21.6C22.92 16.8 24 15.855 24 14.7V2.1C24 0.945 22.92 0 21.6 0ZM12 13.125V3.675L18.564 7.98C18.888 8.19 18.888 8.61 18.564 8.82L12 13.125Z" fill="white"/>
</svg>
