<svg width="21" height="20" viewBox="0 0 21 20" fill="none" xmlns="http://www.w3.org/2000/svg">
<path d="M19.5 0.00146484H1.5C0.671573 0.00146484 0 0.673038 0 1.50146V2.25146C0 3.07989 0.671573 3.75146 1.5 3.75146H19.5C20.3284 3.75146 21 3.07989 21 2.25146V1.50146C21 0.673038 20.3284 0.00146484 19.5 0.00146484Z" fill="black"/>
<path d="M1.98982 5.25147C1.93712 5.25119 1.88495 5.26201 1.83672 5.28324C1.78849 5.30447 1.74527 5.33563 1.70989 5.37468C1.67451 5.41374 1.64775 5.45981 1.63137 5.5099C1.61499 5.55998 1.60935 5.61296 1.61482 5.66538L2.8481 17.5041C2.84785 17.5076 2.84785 17.511 2.8481 17.5144C2.91254 18.062 3.17579 18.5669 3.58788 18.9332C3.99997 19.2995 4.53221 19.5017 5.08357 19.5015H15.9159C16.4671 19.5015 16.9991 19.2991 17.411 18.9328C17.8229 18.5666 18.086 18.0619 18.1504 17.5144V17.5046L19.3818 5.66538C19.3873 5.61296 19.3817 5.55998 19.3653 5.5099C19.3489 5.45981 19.3222 5.41374 19.2868 5.37468C19.2514 5.33563 19.2082 5.30447 19.1599 5.28324C19.1117 5.26201 19.0595 5.25119 19.0068 5.25147H1.98982ZM13.6551 13.7213C13.7264 13.7906 13.7832 13.8734 13.8223 13.9648C13.8613 14.0562 13.8818 14.1545 13.8825 14.2539C13.8832 14.3533 13.8641 14.4519 13.8264 14.5439C13.7887 14.6358 13.733 14.7194 13.6627 14.7897C13.5924 14.86 13.5088 14.9156 13.4168 14.9532C13.3248 14.9909 13.2263 15.0099 13.1268 15.0092C13.0274 15.0085 12.9292 14.9879 12.8377 14.9489C12.7463 14.9098 12.6636 14.853 12.5943 14.7816L10.5 12.6873L8.40513 14.7816C8.26383 14.9189 8.07418 14.9951 7.87717 14.9937C7.68016 14.9923 7.49161 14.9134 7.35227 14.7742C7.21293 14.6349 7.13399 14.4464 7.13251 14.2494C7.13103 14.0524 7.20712 13.8627 7.34435 13.7213L9.43919 11.6265L7.34435 9.53163C7.20712 9.39026 7.13103 9.20058 7.13251 9.00358C7.13399 8.80657 7.21293 8.61805 7.35227 8.47878C7.49161 8.3395 7.68016 8.26064 7.87717 8.25924C8.07418 8.25784 8.26383 8.33402 8.40513 8.47131L10.5 10.5657L12.5943 8.47131C12.7356 8.33402 12.9253 8.25784 13.1223 8.25924C13.3193 8.26064 13.5079 8.3395 13.6472 8.47878C13.7865 8.61805 13.8655 8.80657 13.867 9.00358C13.8685 9.20058 13.7924 9.39026 13.6551 9.53163L11.5603 11.6265L13.6551 13.7213Z" fill="black"/>
</svg>
