<svg width="20" height="21" viewBox="0 0 20 21" fill="none" xmlns="http://www.w3.org/2000/svg">
<path fill-rule="evenodd" clip-rule="evenodd" d="M10 8.00146C11.3809 8.00146 12.5 9.12058 12.5 10.5015C12.5 11.8823 11.3809 13.0015 10 13.0015C8.61912 13.0015 7.5 11.8823 7.5 10.5015C7.5 9.12058 8.61912 8.00146 10 8.00146Z" stroke="black" stroke-width="1.5" stroke-linecap="round" stroke-linejoin="round"/>
<path fill-rule="evenodd" clip-rule="evenodd" d="M18.168 5.75171V5.75171C17.4845 4.55946 15.9712 4.1515 14.7885 4.83999C13.7598 5.4376 12.4741 4.68985 12.4741 3.49364C12.4741 2.11766 11.3659 1.00146 9.99976 1.00146V1.00146C8.63365 1.00146 7.52546 2.11766 7.52546 3.49364C7.52546 4.68985 6.23977 5.4376 5.21199 4.83999C4.02829 4.1515 2.51507 4.55946 1.83153 5.75171C1.14896 6.94397 1.55399 8.46811 2.73769 9.15561C3.76546 9.75421 3.76546 11.2487 2.73769 11.8473C1.55399 12.5358 1.14896 14.06 1.83153 15.2512C2.51507 16.4435 4.02829 16.8514 5.21101 16.1639H5.21199C6.23977 15.5653 7.52546 16.3131 7.52546 17.5093V17.5093C7.52546 18.8853 8.63365 20.0015 9.99976 20.0015V20.0015C11.3659 20.0015 12.4741 18.8853 12.4741 17.5093V17.5093C12.4741 16.3131 13.7598 15.5653 14.7885 16.1639C15.9712 16.8514 17.4845 16.4435 18.168 15.2512C18.8515 14.06 18.4455 12.5358 17.2628 11.8473H17.2618C16.2341 11.2487 16.2341 9.75421 17.2628 9.15561C18.4455 8.46811 18.8515 6.94397 18.168 5.75171Z" stroke="black" stroke-width="1.5" stroke-linecap="round" stroke-linejoin="round"/>
</svg>
