<svg width="24" height="17" viewBox="0 0 24 17" fill="none" xmlns="http://www.w3.org/2000/svg">
<path d="M5.62503 9.06272C5.62629 9.16156 5.60775 9.25965 5.5705 9.35122C5.53326 9.44278 5.47806 9.52596 5.40816 9.59586C5.33827 9.66575 5.25509 9.72095 5.16353 9.75819C5.07196 9.79544 4.97387 9.81398 4.87503 9.81272H0.75003C0.610698 9.81159 0.474293 9.77261 0.3554 9.69996C0.236506 9.6273 0.139596 9.52369 0.0750298 9.40022C0.01499 9.27448 -0.00974718 9.13479 0.00346318 8.99608C0.0166735 8.85737 0.0673347 8.72486 0.15003 8.61272C0.813768 7.72175 1.69945 7.02032 2.71878 6.57835C2.28077 6.1774 1.94424 5.67817 1.73689 5.12174C1.52953 4.56532 1.45728 3.9676 1.52608 3.37779C1.59487 2.78799 1.80275 2.22295 2.1326 1.72918C2.46246 1.23542 2.90485 0.82704 3.42338 0.537667C3.9419 0.248293 4.52174 0.0861942 5.11515 0.0647111C5.70857 0.043228 6.29861 0.162975 6.8367 0.414097C7.3748 0.665218 7.84556 1.04053 8.21025 1.50916C8.57495 1.97778 8.82314 2.52631 8.9344 3.1096C8.96214 3.26151 8.9429 3.41828 8.87925 3.55898C8.8156 3.69968 8.71057 3.81763 8.57815 3.8971C7.36562 4.61612 6.44342 5.73735 5.9719 7.06585C5.73947 7.70582 5.62203 8.38185 5.62503 9.06272ZM23.1 8.61272C22.4363 7.72175 21.5506 7.02032 20.5313 6.57835C20.9693 6.1774 21.3058 5.67817 21.5132 5.12174C21.7205 4.56532 21.7928 3.9676 21.724 3.37779C21.6552 2.78799 21.4473 2.22295 21.1175 1.72918C20.7876 1.23542 20.3452 0.82704 19.8267 0.537667C19.3082 0.248293 18.7283 0.0861942 18.1349 0.0647111C17.5415 0.043228 16.9514 0.162975 16.4134 0.414097C15.8753 0.665218 15.4045 1.04053 15.0398 1.50916C14.6751 1.97778 14.4269 2.52631 14.3157 3.1096C14.2879 3.26151 14.3072 3.41828 14.3708 3.55898C14.4345 3.69968 14.5395 3.81763 14.6719 3.8971C15.886 4.61427 16.8088 5.73615 17.2782 7.06585C17.5106 7.70582 17.628 8.38185 17.625 9.06272C17.6238 9.16156 17.6423 9.25965 17.6796 9.35122C17.7168 9.44278 17.772 9.52596 17.8419 9.59586C17.9118 9.66575 17.995 9.72095 18.0865 9.75819C18.1781 9.79544 18.2762 9.81398 18.375 9.81272H22.5C22.6393 9.81272 22.7758 9.77393 22.8943 9.70071C23.0128 9.62748 23.1086 9.52271 23.1708 9.39813C23.2331 9.27355 23.2595 9.13409 23.247 8.99537C23.2345 8.85664 23.1836 8.72415 23.1 8.61272ZM14.3625 12.6346C15.1089 12.0625 15.6574 11.2709 15.9307 10.3711C16.2041 9.4712 16.1887 8.50832 15.8866 7.6177C15.5845 6.72708 15.011 5.95347 14.2467 5.40557C13.4823 4.85768 12.5655 4.56303 11.625 4.56303C10.6846 4.56303 9.76776 4.85768 9.00339 5.40557C8.23902 5.95347 7.66551 6.72708 7.36345 7.6177C7.0614 8.50832 7.04596 9.4712 7.31933 10.3711C7.59269 11.2709 8.14111 12.0625 8.88753 12.6346C7.42928 13.282 6.24704 14.4244 5.55003 15.8596C5.49457 15.9737 5.46973 16.1002 5.47795 16.2267C5.48617 16.3533 5.52716 16.4755 5.5969 16.5815C5.66182 16.6901 5.75382 16.7801 5.86392 16.8425C5.97403 16.905 6.09845 16.9378 6.22503 16.9377H17.025C17.1516 16.9378 17.276 16.905 17.3861 16.8425C17.4962 16.7801 17.5882 16.6901 17.6532 16.5815C17.7229 16.4755 17.7639 16.3533 17.7721 16.2267C17.7803 16.1002 17.7555 15.9737 17.7 15.8596C17.003 14.4244 15.8208 13.282 14.3625 12.6346Z" fill="black"/>
</svg>
