<svg width="22" height="18" viewBox="0 0 22 18" fill="none" xmlns="http://www.w3.org/2000/svg">
<path d="M6.41554 17.9808C5.16369 17.887 3.97422 17.4094 3.01696 16.6164C2.0597 15.8233 1.38361 14.7553 1.08523 13.5648C0.786841 12.3743 0.881415 11.1222 1.35545 9.98724C1.82948 8.85233 2.65873 7.89264 3.72479 7.24521C3.95162 5.51865 4.8152 3.93194 6.15391 2.78203C7.49261 1.63211 9.21469 0.997803 10.9979 0.997803C12.7811 0.997803 14.5032 1.63211 15.8419 2.78203C17.1806 3.93194 18.0441 5.51865 18.271 7.24521C19.337 7.89264 20.1663 8.85233 20.6403 9.98724C21.1144 11.1222 21.2089 12.3743 20.9105 13.5648C20.6122 14.7553 19.9361 15.8233 18.9788 16.6164C18.0216 17.4094 16.8321 17.887 15.5802 17.9808V17.9978H6.41554V17.9808ZM11.9144 10.8407H14.6638L10.9979 6.36757L7.33201 10.8407H10.0814V14.4193H11.9144V10.8407Z" fill="black"/>
</svg>
